<?xml version="1.0" standalone="no"?>
<!DOCTYPE svg PUBLIC "-//W3C//DTD SVG 20010904//EN"
 "http://www.w3.org/TR/2001/REC-SVG-20010904/DTD/svg10.dtd">
<svg version="1.0" xmlns="http://www.w3.org/2000/svg"
 width="1155.000000pt" height="447.000000pt" viewBox="0 0 1155.000000 447.000000"
 preserveAspectRatio="xMidYMid meet">

<g transform="translate(0.000000,447.000000) scale(0.100000,-0.100000)"
fill="#513999" stroke="none">
<path d="M2170 4394 c-137 -66 -169 -91 -170 -131 0 -16 -10 -27 -32 -37 -18
-8 -73 -43 -123 -79 -84 -61 -91 -64 -115 -52 -14 7 -42 16 -63 20 -20 4 -37
9 -37 12 0 3 17 25 39 49 45 51 54 84 38 134 -15 44 -71 75 -119 65 -36 -8
-101 -66 -199 -178 -63 -71 -69 -81 -69 -122 0 -28 -5 -47 -14 -52 -8 -5 -46
-53 -83 -107 l-68 -99 -73 -4 -73 -4 17 38 c31 74 33 83 28 113 -10 50 -49 80
-103 80 -39 0 -52 -5 -72 -27 -29 -32 -149 -289 -149 -319 0 -10 7 -31 14 -46
13 -24 13 -32 1 -54 -7 -14 -25 -74 -40 -133 l-26 -106 -57 -23 c-31 -13 -63
-25 -69 -29 -10 -4 -12 9 -7 53 3 33 1 71 -5 86 -24 64 -120 84 -168 36 -30
-31 -38 -74 -49 -265 l-7 -122 29 -29 c25 -24 29 -35 26 -75 -2 -26 2 -89 7
-139 10 -84 9 -93 -7 -102 -9 -5 -34 -27 -54 -49 l-37 -39 -15 50 c-21 71 -32
90 -68 108 -65 34 -148 -14 -148 -87 0 -46 73 -314 92 -336 7 -9 28 -22 45
-30 24 -9 33 -20 33 -37 0 -12 22 -68 49 -123 l49 -101 -31 -61 c-18 -33 -35
-61 -39 -61 -3 0 -16 16 -28 35 -31 51 -67 75 -110 75 -70 0 -124 -73 -100
-135 15 -40 166 -251 197 -275 14 -11 41 -20 59 -20 21 0 34 -5 34 -13 0 -7
40 -53 90 -102 99 -98 92 -81 74 -202 l-5 -31 -50 34 c-67 45 -118 47 -160 5
-23 -24 -29 -38 -29 -73 0 -26 7 -52 18 -64 9 -12 75 -61 147 -109 l129 -87
52 6 c29 3 54 2 56 -3 2 -5 56 -34 121 -65 110 -52 117 -57 117 -84 0 -16 5
-43 11 -61 6 -18 9 -34 6 -37 -3 -3 -32 0 -65 7 -48 10 -65 10 -91 -1 -74 -30
-81 -149 -12 -185 15 -7 91 -29 170 -50 145 -37 179 -38 212 -9 12 11 27 12
70 4 30 -5 94 -12 142 -16 78 -5 89 -8 97 -27 4 -12 20 -37 34 -56 14 -19 26
-38 26 -42 0 -3 -28 -9 -62 -12 -54 -5 -67 -10 -90 -36 -37 -41 -38 -97 -3
-139 14 -16 36 -32 50 -34 31 -6 310 21 342 33 13 5 32 22 41 39 11 19 23 28
32 25 9 -3 70 10 135 29 l120 33 25 -22 c14 -12 40 -32 59 -45 l34 -23 -50
-22 c-71 -32 -93 -59 -93 -116 0 -37 5 -52 26 -73 47 -46 80 -41 247 38 137
65 177 97 177 142 0 16 6 24 18 24 10 0 45 19 77 43 33 24 78 56 101 71 l41
27 67 -22 67 -22 -34 -36 c-69 -72 -76 -124 -23 -177 27 -27 42 -34 72 -34 35
0 47 9 163 124 l125 125 1 48 c0 36 5 52 20 64 11 9 49 59 84 110 l64 94 68 2
c39 1 69 -3 69 -8 0 -5 -9 -27 -20 -49 -29 -57 -26 -103 9 -142 25 -28 36 -33
75 -33 63 0 81 22 155 184 65 144 72 178 42 227 -31 51 -58 56 -214 41 -97 -9
-137 -10 -137 -2 0 6 16 43 35 84 44 92 45 132 5 173 -27 27 -35 30 -73 25
-23 -4 -77 -9 -119 -13 l-78 -6 34 78 c28 62 32 82 25 103 -20 52 -26 54 -131
47 -68 -5 -98 -4 -98 4 0 6 9 28 20 50 24 47 26 93 5 110 -10 9 -40 11 -94 8
l-80 -5 16 36 c40 92 25 117 -65 107 -31 -3 -96 -9 -144 -12 -90 -7 -116 -19
-104 -49 3 -9 12 -18 21 -20 8 -3 21 -7 29 -9 12 -4 12 -10 3 -30 -8 -17 -17
-24 -27 -20 -8 3 -37 8 -65 11 -27 4 -72 17 -99 29 -36 17 -54 20 -68 13 -27
-15 -23 -57 7 -71 l24 -11 -24 -19 c-24 -19 -25 -19 -62 6 -21 15 -42 26 -47
26 -5 0 -31 20 -57 45 -50 47 -67 53 -87 33 -16 -16 -15 -43 3 -58 22 -18 19
-27 -11 -34 -21 -6 -30 -2 -42 16 -9 13 -27 33 -39 46 -13 13 -35 46 -49 73
-27 54 -47 68 -73 52 -15 -10 -19 -31 -10 -62 3 -8 -6 -14 -23 -16 -23 -3 -28
1 -38 33 -7 20 -18 51 -26 69 -8 17 -14 49 -14 70 0 50 -19 76 -51 71 -19 -2
-25 -10 -27 -36 -3 -25 -7 -32 -19 -28 -8 3 -20 6 -26 6 -16 0 -14 143 2 192
17 52 7 78 -29 78 -23 0 -31 -5 -36 -25 -7 -29 -12 -30 -38 -10 -19 14 -19 16
-3 50 9 20 17 44 17 54 0 9 16 40 35 67 37 52 42 73 23 92 -19 19 -45 14 -62
-10 -9 -12 -17 -20 -19 -17 -1 2 -9 12 -16 21 -12 16 -9 23 23 58 20 22 36 44
36 48 0 4 23 25 50 45 36 27 50 44 50 62 0 28 -30 41 -59 26 -27 -15 -28 -14
-34 14 -4 22 2 29 37 47 22 11 44 26 48 32 4 5 33 17 64 26 63 17 86 39 68 68
-8 11 -22 16 -44 14 -26 -2 -31 1 -26 14 3 8 6 21 6 29 0 15 70 28 165 29 80
1 95 8 95 42 0 19 -6 26 -30 31 -16 3 -30 7 -30 9 0 1 4 14 9 28 10 24 11 24
60 11 27 -7 52 -10 56 -7 3 3 32 -7 66 -23 46 -23 64 -27 77 -19 28 18 26 51
-3 70 l-26 17 21 19 c20 18 21 18 57 -7 21 -14 42 -25 47 -25 5 0 31 -20 57
-45 52 -48 82 -56 98 -26 8 14 6 25 -10 45 l-20 26 27 11 c25 9 31 7 49 -18
11 -15 29 -37 41 -48 12 -11 33 -44 48 -73 24 -47 30 -53 54 -50 24 3 27 7 26
40 -1 31 3 37 23 41 27 5 27 5 42 -50 14 -50 41 -69 72 -52 17 8 20 18 17 45
-4 34 -3 34 35 34 30 0 40 4 44 20 3 11 11 20 18 20 6 0 20 9 30 20 13 15 16
29 11 59 l-6 40 30 -11 c24 -8 35 -7 55 6 14 9 25 23 25 31 0 8 9 15 19 15 11
0 29 12 41 27 21 27 22 50 4 96 -6 16 -2 17 45 11 42 -5 55 -3 71 11 11 10 20
26 20 37 0 11 7 18 19 18 11 0 32 10 47 23 29 25 34 55 20 119 l-8 37 33 -9
c19 -6 46 -10 60 -10 36 0 79 36 79 66 0 18 5 24 20 24 33 0 75 26 88 55 16
34 15 61 -2 119 -15 48 -14 48 7 42 12 -4 47 -10 77 -13 50 -5 59 -3 87 21 39
33 49 73 29 119 -19 46 -41 57 -218 102 l-147 38 -41 -22 c-23 -12 -49 -19
-58 -17 -10 3 -71 10 -137 16 -66 6 -122 15 -123 21 -2 5 -19 32 -37 59 -18
27 -30 51 -27 54 3 3 26 6 52 6 114 0 171 114 93 186 -31 29 -71 30 -263 10
l-124 -13 -32 -37 c-22 -26 -39 -36 -60 -36 -16 0 -76 -14 -134 -30 -98 -28
-105 -29 -120 -12 -9 9 -33 28 -53 42 -20 14 -37 28 -37 31 0 4 19 14 43 24
23 9 52 26 64 37 45 42 38 129 -13 163 -43 28 -91 17 -234 -51z m68 -389 c9
-8 -3 -19 -56 -44 l-69 -33 -25 25 c-13 13 -41 30 -61 38 -20 7 -37 15 -37 19
0 3 16 16 36 30 20 13 43 34 51 47 l15 23 67 -47 c36 -25 72 -51 79 -58z m556
-42 c64 -88 63 -89 -38 -94 -54 -3 -58 -1 -72 27 -8 16 -28 43 -45 60 l-29 30
49 13 c28 7 55 19 62 27 6 8 13 14 15 14 1 0 28 -35 58 -77z m-1251 -34 c45
-11 85 -24 89 -28 5 -4 -17 -31 -47 -61 -41 -40 -57 -51 -67 -43 -7 6 -39 14
-70 18 l-57 7 29 43 c17 24 30 53 30 64 0 25 -6 25 93 0z m973 -136 c-2 -2
-34 -12 -71 -23 -56 -16 -70 -17 -79 -6 -6 7 -26 23 -45 36 l-34 23 46 24 c26
13 51 33 58 44 11 21 13 19 70 -37 32 -32 57 -59 55 -61z m-615 44 l73 -34
-64 -46 c-43 -31 -67 -44 -74 -37 -6 6 -16 10 -22 10 -7 0 -25 5 -40 10 l-27
11 26 27 c15 15 32 42 38 60 6 18 12 32 14 32 1 0 35 -15 76 -33z m1139 -237
c0 -6 -104 -2 -137 6 -13 2 -23 9 -23 16 0 6 -11 26 -25 44 -14 18 -25 35 -25
38 0 3 20 6 44 6 28 0 52 7 67 19 l24 20 37 -72 c20 -40 37 -74 38 -77z m312
60 c15 -53 20 -86 13 -88 -5 -1 -39 6 -74 15 -60 17 -64 20 -67 51 -2 18 -13
50 -23 70 l-19 38 73 -1 74 0 23 -85z m-1171 30 c32 -23 59 -43 59 -46 0 -3
-24 -16 -52 -29 -50 -23 -53 -24 -73 -7 -11 10 -33 24 -49 31 l-30 12 40 38
c21 21 40 39 42 40 2 0 30 -17 63 -39z m503 -78 c21 -29 36 -55 33 -58 -11
-12 -117 -17 -117 -5 0 6 -16 28 -35 50 l-35 39 33 6 c18 3 42 13 53 20 10 8
22 12 25 8 3 -4 23 -31 43 -60z m-1246 12 c9 -2 0 -22 -27 -63 -40 -58 -41
-59 -93 -63 -29 -2 -55 -3 -57 -1 -2 1 4 23 14 48 9 25 14 56 11 69 -6 23 -5
23 67 19 39 -3 78 -6 85 -9z m319 -58 c1 -1 -17 -22 -41 -45 -38 -37 -47 -41
-64 -32 -11 6 -36 11 -56 11 l-35 0 27 53 27 54 70 -19 c38 -11 71 -20 72 -22z
m-661 2 c-41 -98 -50 -110 -75 -105 -14 3 -45 -1 -70 -9 -25 -7 -47 -12 -49
-10 -2 2 1 21 7 43 6 21 11 52 11 70 0 31 2 32 48 36 26 2 68 4 95 5 l47 2
-14 -32z m1323 -42 l44 -45 -56 -16 -57 -16 -36 27 -36 28 37 18 c20 11 39 26
42 33 8 22 15 19 62 -29z m-452 -11 l57 -26 -49 -35 c-29 -20 -56 -32 -65 -29
-8 4 -27 9 -42 12 l-28 5 24 29 c14 16 27 38 31 49 8 25 3 25 72 -5z m1143
-73 c0 -4 9 -38 20 -76 l19 -68 -27 7 c-98 23 -102 25 -102 51 0 14 -7 38 -15
54 l-15 29 53 4 c28 2 55 4 60 5 4 1 7 -1 7 -6z m-260 -61 c13 -28 22 -53 19
-55 -2 -2 -29 -1 -61 1 -40 4 -58 10 -62 22 -3 9 -13 26 -21 38 -16 21 -16 22
22 29 21 3 45 10 53 14 20 11 23 9 50 -49z m-658 15 l51 -35 -46 -22 c-42 -21
-46 -21 -62 -6 -9 10 -19 17 -23 17 -4 0 -14 5 -22 10 -13 8 -10 14 15 39 17
16 31 29 33 30 1 1 26 -14 54 -33z m422 -107 c-7 -12 -94 -11 -94 0 0 5 -12
23 -26 40 -23 27 -24 31 -7 31 10 1 29 7 43 14 24 14 26 12 57 -31 18 -25 30
-50 27 -54z m-1015 55 c2 -2 -10 -25 -28 -51 -30 -44 -36 -48 -77 -50 -24 -1
-44 -1 -44 1 0 2 7 19 14 38 8 19 13 44 10 55 -5 18 -1 19 58 15 35 -2 65 -6
67 -8z m-269 -19 c0 -2 -11 -29 -24 -59 -20 -44 -28 -54 -44 -49 -11 2 -36 0
-57 -6 l-37 -10 6 37 c3 20 6 47 6 59 0 19 6 22 53 26 28 2 62 4 75 5 12 1 22
0 22 -3z m458 -6 c26 -7 50 -15 55 -18 4 -4 -8 -21 -25 -38 -32 -31 -34 -31
-80 -19 l-46 12 19 24 c10 14 19 31 19 38 0 15 0 15 58 1z m591 -53 c36 -37
33 -43 -25 -51 -31 -4 -44 -1 -64 16 -16 14 -21 23 -13 26 7 3 23 13 35 23 13
11 25 19 29 20 3 0 20 -15 38 -34z m-346 -13 c15 -7 27 -15 27 -17 0 -2 -18
-15 -39 -29 -35 -23 -43 -25 -70 -14 -36 13 -38 18 -11 42 11 10 20 24 20 32
0 16 24 11 73 -14z m-1019 -15 c-20 -94 -28 -110 -64 -123 -19 -7 -43 -16 -52
-20 -16 -6 -18 0 -18 52 0 32 -5 64 -11 70 -9 9 5 17 52 31 94 30 102 29 93
-10z m1926 -70 c6 -24 13 -51 16 -60 6 -21 -5 -22 -57 -8 -29 8 -38 16 -41 38
-3 15 -8 35 -12 44 -6 14 0 17 36 21 23 2 44 4 45 5 1 1 7 -17 13 -40z m-220
-8 c11 -21 20 -42 20 -45 0 -3 -20 -5 -44 -5 -35 0 -47 5 -60 25 -22 33 -20
45 7 45 12 0 29 5 37 10 8 5 16 10 17 10 2 0 12 -18 23 -40z m-525 8 c19 -13
35 -27 35 -31 0 -4 -14 -14 -32 -21 -29 -12 -35 -12 -60 7 l-28 21 22 23 c12
13 23 23 25 23 2 0 19 -10 38 -22z m319 -46 c14 -21 26 -41 26 -45 0 -4 -16
-7 -35 -7 -27 0 -42 7 -60 28 l-23 27 31 16 c18 9 33 17 33 18 1 1 13 -16 28
-37z m-1809 -67 c-6 -66 -9 -75 -27 -75 -10 0 -39 -13 -63 -30 -24 -16 -46
-30 -49 -30 -3 0 -6 19 -6 43 0 23 -6 53 -14 67 -13 25 -12 25 73 66 47 23 88
40 90 38 2 -2 0 -37 -4 -79z m1010 65 c3 -5 -5 -25 -17 -44 -20 -31 -29 -36
-61 -36 -34 0 -37 2 -27 19 5 11 10 31 10 45 0 24 3 26 44 26 25 0 47 -4 51
-10z m-205 -15 c0 -3 -9 -23 -19 -44 -17 -33 -26 -39 -63 -44 -23 -3 -44 -5
-45 -4 -1 1 1 21 4 44 5 38 8 42 37 46 53 7 86 7 86 2z m373 -6 c43 -12 45
-18 15 -47 -18 -16 -30 -19 -56 -14 -38 8 -38 8 -21 45 14 31 12 30 62 16z
m487 -60 c0 -4 -14 -12 -31 -18 -24 -8 -35 -7 -55 6 l-25 16 27 22 28 22 28
-20 c15 -11 28 -24 28 -28z m-1123 -39 c-10 -37 -20 -48 -51 -63 -21 -10 -39
-17 -41 -15 -2 2 -5 28 -6 58 l-4 54 55 16 c63 19 66 15 47 -50z m813 55 c17
-9 30 -17 30 -18 0 -2 -13 -13 -30 -25 -24 -18 -34 -20 -56 -12 -25 10 -26 12
-10 29 9 9 16 23 16 29 0 16 15 15 50 -3z m580 -117 c0 -17 -61 -7 -80 12 -27
27 -25 34 13 45 30 9 33 8 49 -20 9 -16 17 -33 18 -37z m160 31 c6 -23 9 -43
6 -46 -2 -3 -18 -2 -33 1 -21 5 -33 16 -41 40 -17 45 -16 46 23 46 32 0 35 -3
45 -41z m-1794 -125 c-3 -8 -13 -14 -22 -14 -10 0 -32 -11 -49 -25 -38 -28
-45 -25 -45 25 0 20 -5 41 -11 47 -9 9 6 20 57 46 l69 35 3 -50 c2 -28 1 -57
-2 -64z m814 100 c0 -3 -8 -19 -17 -35 -13 -21 -25 -29 -46 -29 -22 0 -28 4
-23 16 3 9 6 24 6 35 0 16 7 19 40 19 22 0 40 -3 40 -6z m-170 -19 c0 -4 -7
-19 -15 -34 -11 -22 -23 -30 -50 -33 -38 -4 -38 -5 -29 41 6 29 9 31 50 31 24
0 44 -2 44 -5z m-200 -37 c0 -34 -22 -86 -38 -91 -9 -2 -25 -8 -35 -12 -14 -6
-17 -2 -15 26 1 19 0 40 -3 48 -2 9 10 18 36 26 53 17 55 17 55 3z m-198 -128
c-3 -36 -8 -50 -19 -50 -8 0 -28 -9 -44 -21 l-29 -20 0 26 c0 14 -5 35 -10 46
-10 17 -5 22 42 44 29 14 55 25 58 25 3 0 3 -22 2 -50z m-504 -60 c0 -52 -2
-57 -39 -89 l-39 -33 -10 27 c-5 14 -10 32 -10 40 0 7 -11 23 -24 36 l-24 23
66 48 c65 47 67 48 74 26 3 -13 6 -48 6 -78z m852 29 c-7 -23 -19 -40 -36 -47
-13 -7 -26 -12 -27 -12 -1 0 -3 18 -3 39 -2 37 0 40 35 49 20 5 37 8 38 7 1
-1 -2 -17 -7 -36z m-154 -85 c-4 -13 -20 -31 -37 -40 -36 -18 -34 -19 -42 22
-5 28 -3 32 36 51 46 22 55 16 43 -33z m-425 -100 c-17 -14 -33 -25 -37 -25
-4 0 -13 17 -20 37 -7 20 -19 41 -26 45 -13 9 -12 10 67 65 l30 22 8 -60 c7
-57 7 -60 -22 -84z m259 0 c0 -35 -5 -50 -22 -65 -29 -23 -38 -24 -38 -1 0 10
-7 27 -15 38 -13 17 -12 21 18 46 46 39 57 36 57 -18z m-766 -55 l19 -70 -22
-16 c-12 -8 -35 -33 -51 -55 l-29 -40 -18 38 c-9 22 -26 49 -37 62 l-20 22 64
65 c36 36 67 65 70 65 4 0 14 -32 24 -71z m956 -12 c0 -22 -7 -36 -21 -45 -12
-7 -22 -12 -22 -10 -1 2 -8 14 -16 27 -12 23 -11 27 13 48 33 28 46 22 46 -20z
m-615 -34 c16 -55 16 -57 -3 -72 -11 -9 -27 -28 -37 -43 -21 -34 -31 -35 -39
-5 -3 12 -15 33 -27 46 l-21 23 53 54 c29 30 54 54 55 54 2 0 10 -26 19 -57z
m258 -118 c-15 -18 -30 -34 -33 -34 -3 0 -15 16 -28 36 l-23 36 43 44 43 44
13 -46 c13 -44 13 -47 -15 -80z m235 43 c7 -27 5 -38 -12 -60 -27 -34 -32 -34
-50 -1 -13 25 -12 29 13 60 14 18 29 33 33 33 4 0 11 -15 16 -32z m-674 -289
l-26 -51 -37 40 c-20 22 -44 44 -53 49 -15 7 -11 17 30 76 l46 68 33 -65 33
-65 -26 -52z m305 122 c23 -48 23 -49 5 -90 -10 -23 -21 -41 -24 -41 -3 0 -14
14 -23 30 -10 17 -21 30 -25 30 -4 0 -13 4 -20 9 -11 7 -7 19 20 59 18 29 36
52 39 52 3 0 16 -22 28 -49z m253 -68 l-15 -32 -34 34 -34 35 28 41 27 41 22
-43 c20 -41 21 -45 6 -76z m196 82 c15 -32 15 -46 -1 -66 -11 -15 -15 -15 -39
6 l-26 22 20 32 c24 38 31 39 46 6z m-66 -218 c-8 -18 -16 -33 -16 -34 -1 0
-14 9 -29 22 l-29 22 22 43 21 42 24 -32 c22 -29 22 -33 7 -63z m-222 15 l26
-37 -21 -42 -20 -41 -32 28 -32 29 21 51 c11 27 23 50 27 50 3 0 17 -17 31
-38z m-246 -90 c4 -7 3 -19 -3 -26 -7 -8 -17 -32 -24 -54 l-12 -40 -44 39 -43
39 31 66 31 67 28 -39 c16 -22 32 -45 36 -52z m593 16 c15 -16 20 -31 16 -50
-5 -25 -6 -26 -35 -14 -33 14 -33 14 -24 56 7 36 16 37 43 8z m-958 -47 l41
-59 -19 -34 c-10 -18 -22 -48 -26 -65 -4 -18 -9 -33 -12 -33 -3 0 -23 16 -44
35 -22 19 -46 35 -54 35 -8 0 -15 2 -15 5 0 9 79 175 83 175 2 0 23 -27 46
-59z m795 -86 c-3 -16 -7 -31 -8 -32 -5 -6 -75 33 -76 42 0 6 5 27 11 49 l11
38 34 -33 c29 -28 34 -38 28 -64z m-221 -109 c-3 -22 -7 -43 -9 -45 -2 -2 -18
6 -37 18 -19 11 -42 21 -52 21 -18 0 -18 1 6 94 l10 39 44 -43 c40 -39 42 -45
38 -84z m366 75 c17 -13 24 -29 25 -55 1 -39 -1 -41 -38 -26 -23 8 -26 15 -26
55 0 50 4 53 39 26z m160 -66 c28 -14 41 -33 41 -59 0 -8 -12 -11 -34 -8 -34
4 -46 20 -46 65 0 21 3 21 39 2z m-807 -148 c-2 -29 -6 -54 -8 -56 -2 -2 -21
8 -42 23 -21 14 -50 26 -65 26 -15 0 -27 3 -27 6 0 8 29 124 36 143 3 10 20
-1 58 -38 53 -52 53 -53 48 -104z m458 99 c33 -22 35 -26 32 -70 -3 -39 -7
-46 -21 -40 -9 3 -26 9 -38 11 -21 5 -23 11 -23 64 0 33 3 59 8 59 4 0 23 -11
42 -24z m199 -82 c37 -15 51 -34 51 -74 0 -12 -10 -14 -45 -12 -41 4 -45 6
-45 31 0 14 -3 36 -6 49 -7 26 -6 27 45 6z m1228 -19 c-10 -32 -13 -35 -50
-35 -38 0 -39 1 -25 23 8 12 18 28 22 35 4 6 20 12 36 12 28 0 28 -1 17 -35z
m-1623 -132 c1 -35 0 -63 -3 -63 -4 1 -17 7 -31 15 -14 8 -35 14 -47 15 -21 0
-23 5 -23 49 0 27 3 63 6 80 l7 31 45 -32 c45 -33 45 -33 46 -95z m617 108 c4
-3 11 -21 17 -38 l11 -33 -38 0 c-34 0 -39 3 -44 28 -3 15 -9 35 -13 46 -6 16
-3 17 27 11 19 -4 37 -10 40 -14z m163 -1 c14 0 27 -9 33 -23 10 -21 7 -24
-24 -34 -32 -10 -35 -9 -48 18 -19 36 -19 53 1 45 9 -3 26 -6 38 -6z m596 -79
c-1 -3 -10 -17 -20 -30 -18 -21 -23 -22 -50 -11 -37 15 -37 23 -3 48 22 16 32
18 50 9 13 -6 23 -13 23 -16z m-284 -23 c4 -6 2 -14 -4 -16 -7 -2 -19 -11 -28
-19 -14 -14 -18 -13 -45 13 l-30 29 33 11 c33 12 60 5 74 -18z m459 -22 c-3
-6 -8 -19 -11 -30 -6 -15 -13 -17 -47 -12 -58 10 -62 15 -32 46 24 25 30 27
61 17 19 -6 32 -15 29 -21z m-1335 -1 c31 -16 50 -32 50 -43 0 -9 3 -27 6 -39
6 -21 4 -22 -47 -20 -30 1 -57 7 -61 12 -9 11 -11 115 -3 115 3 0 28 -11 55
-25z m1535 7 c-4 -10 -9 -29 -12 -44 -5 -26 -9 -28 -54 -28 -27 0 -49 2 -49 5
0 3 11 22 25 43 21 32 31 38 61 39 29 1 34 -2 29 -15z m-837 -42 c27 -35 27
-40 4 -40 -10 0 -23 -5 -30 -12 -6 -6 -13 -10 -15 -7 -51 64 -58 77 -40 82 42
11 60 6 81 -23z m-1194 -89 c-1 -6 -2 -40 -2 -76 l-2 -65 -40 20 c-21 11 -52
20 -67 20 l-28 0 7 83 c3 45 7 90 7 100 1 16 12 11 64 -26 34 -24 62 -50 61
-56z m729 88 c38 -9 44 -15 55 -51 7 -22 12 -42 10 -43 -2 -2 -21 -5 -42 -6
l-40 -4 -17 58 c-9 31 -15 57 -12 57 2 0 23 -5 46 -11z m278 -36 c7 -16 15
-31 17 -34 1 -4 -10 -9 -25 -11 -15 -3 -35 -8 -43 -12 -12 -5 -22 6 -38 39
l-22 45 49 0 c42 0 49 -3 62 -27z m499 9 l30 -19 -25 -21 c-31 -27 -29 -27
-71 5 l-35 27 23 12 c31 18 42 17 78 -4z m195 -104 c-13 -15 -25 -32 -27 -38
-4 -13 -88 16 -88 29 0 5 16 19 35 33 31 22 40 24 69 14 l34 -10 -23 -28z
m-352 -2 l29 -23 -31 -12 c-16 -7 -32 -20 -36 -29 -4 -12 -14 -8 -46 24 l-40
39 33 12 c47 17 59 15 91 -11z m571 -16 c29 0 33 -11 11 -30 -8 -7 -15 -18
-15 -26 0 -22 -20 -27 -68 -13 -26 6 -49 14 -51 16 -3 2 10 19 29 38 26 27 37
32 51 25 10 -6 29 -10 43 -10z m-1662 -19 c63 -28 64 -28 75 -82 6 -30 9 -56
8 -57 -2 -2 -20 1 -40 8 -20 7 -52 9 -71 6 -32 -7 -34 -5 -34 21 0 15 -3 52
-6 81 -4 28 -4 52 -1 52 3 0 34 -13 69 -29z m1919 -20 c-6 -11 -11 -31 -11
-46 0 -26 0 -26 -62 -19 -35 4 -64 7 -65 8 -1 1 11 22 27 46 26 39 35 46 72
50 47 5 57 -5 39 -39z m-1039 -31 l28 -40 -28 -6 c-15 -4 -32 -11 -38 -16 -8
-6 -23 7 -47 39 -39 53 -35 61 28 62 24 0 36 -8 57 -39z m-564 -1 c28 -8 42
-18 42 -29 0 -10 7 -34 15 -53 8 -20 15 -38 15 -40 0 -2 -26 -3 -57 -2 l-57 2
-18 64 c-22 79 -22 82 0 75 9 -2 36 -10 60 -17z m327 -42 c27 -44 25 -51 -15
-58 -19 -3 -42 -9 -50 -13 -12 -5 -23 8 -43 49 -15 30 -27 56 -27 58 0 1 26 1
58 -1 52 -3 59 -6 77 -35z m617 21 c19 -13 35 -27 36 -31 1 -4 -11 -19 -27
-33 l-30 -25 -46 31 c-25 17 -45 33 -45 35 0 4 68 43 77 45 1 0 17 -10 35 -22z
m256 -99 l24 -9 -26 -31 c-14 -17 -26 -39 -26 -49 0 -17 -4 -17 -60 7 -33 15
-59 30 -58 34 2 4 21 21 43 38 40 29 49 30 103 10z m-449 -38 l35 -29 -32 -16
c-17 -9 -37 -25 -45 -36 -13 -19 -15 -18 -57 25 -24 25 -41 47 -38 50 4 5 83
32 98 34 3 0 20 -12 39 -28z m715 -21 c20 0 36 -2 36 -4 0 -2 -12 -27 -26 -54
l-26 -50 -56 15 c-92 23 -90 19 -42 68 34 35 47 42 61 35 10 -6 34 -10 53 -10z
m331 -36 c-8 -20 -15 -52 -15 -70 l0 -34 -77 7 c-43 3 -80 7 -82 9 -2 2 14 30
35 64 l39 60 58 0 57 0 -15 -36z m-1325 -19 c0 -8 14 -30 31 -49 l30 -35 -28
-7 c-15 -3 -39 -13 -51 -21 -13 -8 -25 -13 -26 -11 -2 2 -22 30 -45 63 l-42
60 38 6 c70 11 93 10 93 -6z m-682 -36 c48 -11 52 -14 52 -41 0 -16 9 -46 20
-68 11 -22 20 -42 20 -45 0 -3 -26 -4 -57 -3 -32 1 -64 0 -72 -3 -9 -3 -20 21
-37 81 -29 104 -29 104 -1 96 12 -3 46 -11 75 -17z m1152 -9 c0 -5 20 -20 45
-33 l45 -23 -45 -37 -45 -38 -62 42 -61 42 54 28 c60 31 69 34 69 19z m-800
-6 c33 -5 59 -35 88 -95 1 -4 -18 -9 -43 -11 -25 -3 -55 -14 -65 -23 -11 -10
-21 -16 -23 -14 -7 12 -67 140 -67 144 0 7 67 6 110 -1z m1126 -130 l55 -16
-36 -39 c-19 -21 -35 -48 -35 -59 0 -11 -4 -20 -9 -20 -15 0 -141 61 -141 68
1 6 99 80 108 82 2 0 28 -7 58 -16z m-516 -73 l24 -19 -46 -22 c-26 -12 -50
-30 -53 -41 -4 -10 -10 -19 -13 -19 -4 0 -34 26 -65 58 l-58 59 73 19 c70 19
74 19 93 2 11 -9 31 -26 45 -37z m806 4 c16 -8 48 -15 72 -15 23 0 42 -2 42
-5 0 -3 -13 -24 -30 -47 -16 -22 -30 -49 -30 -60 0 -10 -2 -18 -5 -18 -11 0
-180 43 -184 47 -4 3 99 113 105 113 1 0 15 -7 30 -15z m-1177 -87 c5 -13 23
-36 40 -52 17 -17 31 -33 31 -37 0 -5 -19 -13 -42 -19 -22 -7 -51 -18 -63 -26
-20 -13 -24 -10 -77 64 l-56 77 32 6 c17 4 52 7 79 8 41 1 49 -2 56 -21z m590
-57 c6 -10 33 -28 61 -40 l51 -22 -39 -29 c-22 -16 -46 -38 -54 -49 -14 -19
-16 -19 -91 31 -42 28 -77 54 -77 57 0 7 118 69 132 70 4 1 12 -7 17 -18z"/>
<path d="M4747 3769 c-130 -31 -242 -142 -288 -288 -27 -86 -30 -238 -5 -331
44 -169 170 -285 339 -311 122 -19 237 12 325 87 49 41 108 155 118 227 l6 47
-45 0 c-44 0 -44 0 -50 -40 -13 -97 -97 -205 -184 -234 -108 -37 -231 -13
-314 61 -118 107 -159 307 -99 488 46 139 161 227 297 229 130 1 238 -63 278
-167 17 -46 18 -47 62 -47 l45 0 -7 33 c-24 109 -115 200 -237 239 -64 19
-175 23 -241 7z"/>
<path d="M5677 3769 c-130 -31 -242 -142 -288 -288 -24 -76 -29 -235 -10 -315
55 -228 249 -360 481 -327 225 31 360 209 360 473 0 227 -112 396 -299 452
-59 17 -181 20 -244 5z m260 -95 c67 -32 136 -109 163 -181 75 -201 18 -441
-128 -534 -59 -37 -101 -49 -178 -49 -91 0 -154 23 -215 77 -144 130 -170 406
-54 581 85 128 268 175 412 106z"/>
<path d="M7370 3765 c-182 -52 -299 -227 -300 -451 0 -204 86 -367 232 -438
114 -55 281 -55 390 0 150 76 231 223 232 424 1 213 -83 368 -241 442 -56 27
-80 32 -162 35 -65 2 -114 -2 -151 -12z m240 -77 c248 -78 312 -507 104 -697
-64 -58 -124 -81 -213 -81 -84 0 -127 12 -188 53 -60 40 -107 110 -134 199
-28 93 -23 243 11 331 67 169 244 251 420 195z"/>
<path d="M11007 3770 c-229 -58 -361 -316 -303 -591 50 -237 251 -376 488
-339 256 39 406 298 344 592 -32 146 -112 254 -232 310 -58 27 -80 32 -163 34
-53 2 -113 -1 -134 -6z m224 -80 c82 -23 159 -103 201 -209 19 -47 22 -75 22
-176 0 -101 -3 -129 -23 -178 -31 -79 -87 -146 -152 -182 -75 -40 -197 -47
-281 -15 -145 54 -226 208 -215 405 15 273 205 424 448 355z"/>
<path d="M6400 3305 l0 -455 295 0 295 0 0 40 0 40 -255 0 -255 0 0 415 0 415
-40 0 -40 0 0 -455z"/>
<path d="M8100 3306 l0 -456 45 0 45 0 0 205 0 205 168 0 c201 -1 236 -7 279
-54 39 -42 49 -78 61 -223 6 -61 13 -117 17 -122 3 -6 28 -11 55 -11 l48 0
-14 30 c-8 16 -19 84 -25 152 -14 167 -43 226 -126 252 -20 7 -17 10 29 34 73
39 108 105 108 206 0 97 -35 159 -111 201 l-54 30 -262 3 -263 3 0 -455z m485
370 c63 -19 92 -49 111 -112 27 -93 -11 -174 -101 -215 -34 -16 -66 -19 -222
-19 l-183 0 0 180 0 180 173 0 c122 0 188 -4 222 -14z"/>
<path d="M9071 3310 c-99 -247 -181 -452 -181 -455 0 -3 21 -5 46 -3 l47 3 52
135 52 135 209 3 209 2 54 -140 54 -140 48 0 49 0 -13 33 c-7 17 -87 222 -178
454 l-164 422 -51 1 -51 0 -182 -450z m318 121 c45 -117 81 -215 81 -217 0 -2
-79 -4 -176 -4 -97 0 -174 4 -172 9 124 320 173 440 179 434 4 -5 44 -104 88
-222z"/>
<path d="M9830 3305 l0 -457 213 4 c184 4 220 7 270 26 111 40 186 118 223
229 26 79 27 312 2 393 -35 113 -104 187 -217 232 -51 20 -77 22 -273 26
l-218 4 0 -457z m370 375 c84 -14 162 -52 200 -98 17 -20 40 -68 52 -105 17
-58 20 -87 16 -195 -5 -146 -24 -204 -86 -265 -69 -68 -116 -81 -299 -85
l-163 -4 0 381 0 381 108 0 c59 0 136 -5 172 -10z"/>
<path d="M5860 2557 c-102 -30 -174 -84 -224 -169 -81 -139 -70 -356 24 -487
122 -167 409 -188 561 -40 157 153 156 452 -3 606 -87 84 -242 123 -358 90z
m207 -163 c31 -18 49 -39 70 -81 24 -51 28 -69 28 -148 0 -77 -4 -98 -27 -147
-38 -81 -88 -113 -179 -113 -59 0 -73 4 -110 30 -26 18 -53 50 -68 80 -23 43
-26 62 -26 145 0 84 3 102 28 152 54 111 174 145 284 82z"/>
<path d="M6667 2560 c-53 -14 -97 -37 -135 -74 -48 -44 -64 -81 -65 -146 -1
-121 60 -178 250 -230 130 -36 187 -61 197 -85 21 -56 -10 -107 -75 -125 -105
-30 -216 18 -232 100 l-6 30 -82 0 -82 0 6 -45 c7 -66 53 -134 115 -171 136
-82 363 -66 464 33 101 99 84 268 -34 337 -24 14 -103 41 -175 60 -147 39
-171 51 -179 84 -17 66 30 107 123 106 74 -1 109 -20 131 -75 l15 -39 79 0 78
0 0 32 c0 77 -71 163 -159 193 -57 20 -183 27 -234 15z"/>
<path d="M7462 2555 c-63 -18 -85 -29 -134 -67 -82 -64 -138 -195 -138 -322 1
-179 76 -308 218 -374 50 -24 70 -27 157 -27 118 0 174 21 242 87 45 44 89
132 95 188 l3 35 -80 3 -81 3 -12 -47 c-49 -181 -293 -173 -356 12 -37 109
-12 258 53 323 93 93 256 64 300 -51 10 -27 12 -28 91 -28 92 0 91 -1 59 84
-25 68 -106 146 -176 171 -68 23 -177 28 -241 10z"/>
<path d="M10227 2559 c-102 -24 -197 -100 -241 -192 -82 -177 -51 -388 76
-509 71 -67 139 -92 258 -92 82 -1 103 3 151 25 97 46 165 137 184 247 l7 43
-82 -3 -83 -3 -12 -42 c-19 -62 -50 -99 -100 -119 -94 -35 -193 5 -242 99 -24
46 -27 63 -28 147 0 84 3 101 28 153 58 117 197 149 291 67 18 -17 39 -43 46
-60 12 -30 13 -30 91 -30 76 0 79 1 79 23 0 40 -59 144 -98 175 -90 71 -212
98 -325 71z"/>
<path d="M4470 2166 l0 -386 220 0 c175 0 229 3 267 16 104 35 153 100 153
204 0 33 -6 75 -14 93 -15 36 -79 97 -102 97 -9 0 1 15 24 38 95 89 76 244
-36 295 -43 20 -65 22 -279 25 l-233 3 0 -385z m389 243 c38 -14 51 -35 51
-88 0 -31 -6 -44 -26 -60 -23 -18 -41 -21 -135 -21 l-109 0 0 90 0 90 94 0
c51 0 107 -5 125 -11z m55 -318 c21 -20 26 -34 26 -76 0 -42 -5 -56 -26 -76
-24 -22 -34 -24 -150 -27 l-124 -4 0 107 0 107 124 -4 c116 -3 126 -5 150 -27z"/>
<path d="M5260 2165 l0 -385 85 0 85 0 0 385 0 385 -85 0 -85 0 0 -385z"/>
<path d="M8060 2165 l0 -385 85 0 85 0 0 385 0 385 -85 0 -85 0 0 -385z"/>
<path d="M8410 2165 l0 -385 290 0 290 0 0 70 0 70 -205 0 -205 0 0 95 0 95
185 0 185 0 0 65 0 65 -185 0 -185 0 0 85 0 85 200 0 200 0 0 70 0 70 -285 0
-285 0 0 -385z"/>
<path d="M9140 2165 l0 -385 80 0 80 0 2 254 3 254 158 -254 158 -254 84 0 85
0 0 385 0 385 -80 0 -80 0 0 -257 0 -258 -159 255 -158 255 -87 3 -86 3 0
-386z"/>
<path d="M10810 2165 l0 -385 290 0 290 0 0 70 0 70 -205 0 -205 0 0 95 0 95
185 0 185 0 0 65 0 65 -185 0 -185 0 0 85 0 85 205 0 205 0 0 70 0 70 -290 0
-290 0 0 -385z"/>
<path d="M5335 1471 c-60 -16 -115 -52 -142 -93 -24 -35 -28 -52 -28 -112 0
-124 34 -152 259 -210 161 -42 194 -58 219 -109 52 -106 -63 -206 -223 -195
-123 9 -195 64 -207 158 -5 39 -7 40 -45 40 l-39 0 7 -47 c14 -101 75 -171
170 -199 87 -25 243 -16 309 17 97 49 138 155 100 254 -29 78 -77 103 -284
155 -167 41 -196 62 -196 138 0 93 68 146 185 146 105 -1 189 -58 204 -138 6
-33 10 -36 43 -36 l36 0 -6 46 c-12 108 -112 183 -253 189 -43 3 -92 1 -109
-4z"/>
<path d="M6035 1471 c-105 -27 -175 -114 -175 -215 0 -51 38 -114 83 -140 23
-13 100 -38 170 -55 199 -49 242 -77 242 -163 0 -45 -4 -53 -41 -88 -46 -43
-94 -60 -170 -60 -122 0 -204 53 -226 148 -12 50 -14 52 -47 52 l-33 0 4 -55
c6 -74 45 -130 118 -169 47 -26 67 -30 155 -34 208 -9 315 64 315 213 0 122
-58 168 -280 220 -177 42 -213 67 -212 146 2 104 107 166 238 139 80 -17 154
-88 154 -150 0 -17 6 -20 40 -20 l41 0 -7 38 c-22 123 -112 191 -263 198 -42
2 -89 0 -106 -5z"/>
<path d="M6793 1466 c-106 -35 -166 -89 -217 -196 -29 -62 -31 -71 -31 -185 1
-144 21 -206 92 -285 69 -77 127 -103 243 -108 79 -3 104 0 151 17 159 60 250
244 219 444 -21 139 -89 241 -197 293 -65 32 -193 42 -260 20z m216 -72 c52
-21 116 -89 142 -148 51 -116 31 -312 -41 -399 -69 -82 -188 -117 -297 -86
-70 19 -153 104 -179 184 -42 131 -16 292 61 382 72 85 204 113 314 67z"/>
<path d="M7620 1467 c-175 -50 -277 -235 -250 -453 17 -136 87 -242 195 -294
39 -19 71 -25 141 -28 83 -4 97 -2 153 23 34 16 76 44 93 64 36 41 74 119 84
174 l6 38 -37 -3 c-36 -3 -38 -5 -50 -51 -17 -69 -63 -127 -126 -160 -49 -26
-61 -28 -126 -24 -58 3 -82 10 -120 33 -88 54 -143 167 -143 293 0 120 32 203
103 268 52 48 102 67 177 67 99 1 174 -45 216 -130 24 -50 29 -54 61 -54 34 0
34 1 28 33 -17 78 -81 153 -164 190 -55 24 -180 32 -241 14z"/>
<path d="M10190 1467 c-135 -38 -227 -154 -250 -315 -27 -191 50 -361 195
-433 44 -21 64 -24 160 -24 100 0 115 2 161 27 67 35 137 114 166 186 19 48
22 76 23 178 0 119 0 121 -38 196 -41 84 -89 133 -166 169 -57 27 -185 35
-251 16z m227 -78 c55 -27 107 -88 135 -158 31 -80 31 -223 -1 -303 -47 -121
-150 -185 -280 -176 -172 13 -271 148 -259 358 10 160 86 267 215 300 53 13
140 3 190 -21z"/>
<path d="M4679 1433 c-6 -15 -71 -178 -146 -363 -75 -184 -138 -343 -140 -352
-4 -15 1 -18 33 -18 l39 0 45 118 45 117 173 0 173 0 46 -117 46 -118 40 0
c33 0 38 3 33 18 -4 9 -70 180 -148 380 l-142 362 -43 0 c-38 0 -45 -3 -54
-27z m124 -241 c37 -99 67 -182 67 -185 0 -4 -66 -7 -146 -7 -80 0 -144 4
-142 8 2 5 34 88 72 185 38 98 72 177 76 177 4 0 37 -80 73 -178z"/>
<path d="M8190 1080 l0 -380 35 0 35 0 0 380 0 380 -35 0 -35 0 0 -380z"/>
<path d="M8667 1448 c-3 -7 -71 -176 -151 -375 -80 -199 -146 -364 -146 -367
0 -3 17 -6 38 -6 l38 0 46 118 45 117 173 0 172 0 47 -117 46 -118 39 0 c32 0
37 3 33 18 -2 9 -66 175 -142 367 -76 193 -140 356 -142 363 -3 7 -23 12 -48
12 -25 0 -45 -5 -48 -12z m181 -444 c-3 -2 -68 -3 -146 -2 l-140 3 69 175 c38
96 71 182 75 190 3 9 36 -65 76 -173 39 -103 68 -190 66 -193z"/>
<path d="M9000 1430 l0 -30 135 0 135 0 0 -350 0 -350 35 0 35 0 0 350 0 350
130 0 130 0 0 30 0 30 -300 0 -300 0 0 -30z"/>
<path d="M9710 1080 l0 -380 35 0 35 0 0 380 0 380 -35 0 -35 0 0 -380z"/>
<path d="M10800 1081 l0 -381 35 0 35 0 2 319 3 318 219 -318 219 -319 39 0
38 0 0 380 0 380 -35 0 -35 0 -2 -317 -3 -316 -216 314 -216 314 -41 3 -42 3
0 -380z"/>
</g>
</svg>
